<svg width="323" height="291" viewBox="0 0 323 291" fill="none" xmlns="http://www.w3.org/2000/svg">
<path d="M159.204 0H218.301C226.363 0 233.577 4.68174 236.392 11.7413L288.264 141.849C288.664 142.853 288.669 143.957 288.277 144.963L287.987 145.711L287.984 145.718L236.33 278.538C233.557 285.668 226.305 290.415 218.185 290.415H159.097C155.774 290.415 153.445 287.351 154.541 284.42L207.803 141.849L154.671 6.058C153.52 3.11569 155.851 0 159.204 0Z" fill="#D631B9"/>
<path d="M4.93682 0H64.034C72.0965 0 79.31 4.68174 82.1245 11.7413L133.997 141.849C134.397 142.853 134.402 143.957 134.01 144.963L133.719 145.711L133.716 145.718L82.0627 278.538C79.2896 285.668 72.0379 290.415 63.9185 290.415H4.8302C1.50734 290.415 -0.821522 287.351 0.273586 284.42L53.5355 141.849L0.404007 6.058C-0.747243 3.11569 1.58403 0 4.93682 0Z" fill="#D631B9"/>
<path d="M199.304 114.117H115.879V177.057H199.304L212.936 144.688L199.304 114.117Z" fill="#D631B9"/>
<path d="M193.321 0H252.418C260.481 0 267.694 4.68174 270.509 11.7413L322.381 141.849C322.781 142.853 322.786 143.957 322.395 144.963L322.104 145.711L322.101 145.718L270.447 278.538C267.674 285.668 260.422 290.415 252.303 290.415H193.214C189.892 290.415 187.563 287.351 188.658 284.42L241.92 141.849L188.788 6.058C187.637 3.11569 189.968 0 193.321 0Z" fill="#E3EEFF"/>
<path d="M39.054 0H98.1512C106.214 0 113.427 4.68174 116.242 11.7413L168.114 141.849C168.514 142.853 168.519 143.957 168.127 144.963L167.836 145.711L167.834 145.718L116.18 278.538C113.407 285.668 106.155 290.415 98.0357 290.415H38.9474C35.6245 290.415 33.2957 287.351 34.3908 284.42L87.6527 141.849L34.5212 6.058C33.3699 3.11569 35.7012 0 39.054 0Z" fill="#E3EEFF"/>
<path d="M233.421 114.117H149.996V177.057H233.421L247.053 144.688L233.421 114.117Z" fill="#E3EEFF"/>
</svg>
