<svg fill="none" height="17" viewBox="3.5 3.5 17 17" width="17" xmlns="http://www.w3.org/2000/svg">
    <path clip-rule="evenodd"
        d="m12.7864 9.74996-1.7865-3.57295-1.78645 3.57295zm-5.4573.41464 3-6.00005h1.3416l3 6.00005-.6708 1.0854h-5.99998zm5.4209 3.3354.75-.75h6l.75.75v6l-.75.75h-6l-.75-.75zm6 .75h-4.5v4.5h4.5zm-11.25-1.5c-2.07107 0-3.75 1.6789-3.75 3.75 0 2.071 1.67893 3.75 3.75 3.75s3.75-1.679 3.75-3.75c0-2.0711-1.67893-3.75-3.75-3.75zm-2.25 3.75c0-1.2427 1.00736-2.25 2.25-2.25s2.25 1.0073 2.25 2.25c0 1.2426-1.00736 2.25-2.25 2.25s-2.25-1.0074-2.25-2.25z"
        fill="#080341" fill-rule="evenodd" />
</svg>